<?xml version="1.0" standalone="no"?>
<!DOCTYPE svg PUBLIC "-//W3C//DTD SVG 20010904//EN"
 "http://www.w3.org/TR/2001/REC-SVG-20010904/DTD/svg10.dtd">
<svg version="1.0" xmlns="http://www.w3.org/2000/svg"
 width="230.000000pt" height="230.000000pt" viewBox="0 0 230.000000 230.000000"
 preserveAspectRatio="xMidYMid meet">
<metadata>
Created by potrace 1.14, written by Peter Selinger 2001-2017
</metadata>
<g transform="translate(0.000000,230.000000) scale(0.100000,-0.100000)"
fill="#000000" stroke="none">
<path d="M1020 2148 c-140 -50 -266 -94 -425 -148 -82 -28 -159 -56 -170 -61
-11 -5 -40 -15 -65 -23 -25 -8 -105 -35 -178 -60 -74 -25 -138 -43 -143 -40
-10 6 -6 -71 6 -156 5 -32 12 -94 20 -180 5 -56 14 -141 21 -190 3 -25 6 -62
6 -82 1 -21 4 -38 7 -38 3 0 7 -19 8 -43 3 -58 10 -142 13 -142 1 0 3 -22 5
-50 4 -50 8 -82 20 -185 4 -30 8 -67 9 -83 1 -23 21 -40 145 -122 79 -52 146
-95 148 -95 2 0 9 -5 16 -11 7 -5 68 -47 137 -92 69 -45 205 -134 304 -199 98
-65 182 -118 187 -118 5 0 9 -4 9 -9 0 -8 384 239 417 268 7 6 16 11 21 11 4
0 17 7 27 16 11 8 124 83 250 166 127 83 232 152 234 154 2 2 5 16 7 31 12 92
16 133 20 178 2 28 6 64 9 80 2 17 7 59 11 95 3 36 7 79 9 95 2 17 6 53 9 80
3 28 10 81 14 119 5 38 8 80 6 93 -1 13 1 23 5 23 4 0 8 17 8 38 0 20 4 64 8
97 4 33 9 78 10 100 2 22 4 40 5 40 1 0 4 20 6 45 2 24 6 50 8 57 3 7 -1 10
-10 6 -8 -3 -20 0 -27 5 -7 6 -53 24 -102 40 -77 25 -205 70 -620 218 -38 14
-78 29 -87 35 -10 5 -23 9 -30 9 -7 0 -47 13 -88 30 -41 16 -84 29 -95 29 -11
0 -58 -14 -105 -31z"/>
</g>
</svg>
