<svg xmlns="http://www.w3.org/2000/svg" viewBox="27.401 17.168 184.45464 40.620868">
  <defs>
    <linearGradient id="a" gradientTransform="rotate(90 5.116 30.856) scale(22.8571)" gradientUnits="userSpaceOnUse" x2="1">
      <stop offset="0" stop-color="#009cde"/>
      <stop offset=".5" stop-color="#00577d"/>
      <stop offset=".5" stop-color="#00577d"/>
      <stop offset="1" stop-color="#00314a"/>
    </linearGradient>
    <linearGradient id="b" gradientTransform="matrix(0 40.00017 -40.00016 0 48.83 17.168)" gradientUnits="userSpaceOnUse" x2="1">
      <stop offset="0" stop-color="#8dd0f1"/>
      <stop offset=".5" stop-color="#0088c2"/>
      <stop offset=".5" stop-color="#0088c2"/>
      <stop offset="1" stop-color="#003a56"/>
    </linearGradient>
  </defs>
  <path d="M44.544 37.168L33.114 25.74 27.4 31.454l5.716 5.714-5.714 5.714 5.715 5.715 11.43-11.43z" fill="url(#a)"/>
  <path d="M61.686 37.168l-20-20-5.714 5.714 14.286 14.286-14.286 14.286 5.715 5.714 20-20z" fill="url(#b)"/>
  <path d="M69.55 49.366h.606l1.287 5.437 1.892-5.437h.438l1.943 5.318 1.314-5.318h.585L76.06 55.55h-.62l-1.884-5.27-1.853 5.27h-.643zm12.84 2.673h3.965c-.02-1.44-.646-2.16-1.873-2.16-1.328 0-2.025.72-2.093 2.15m2.09-2.68c1.63 0 2.45.93 2.45 2.81 0 .13-.01.27-.02.42h-4.52c0 1.62.82 2.42 2.47 2.42.67 0 1.28-.1 1.8-.3v.53c-.53.2-1.13.29-1.81.29-2.05 0-3.08-1.06-3.08-3.17 0-2.01.89-3.02 2.69-3.02m7.79 5.46c.61.11 1.16.17 1.65.17 1.55 0 2.33-.9 2.33-2.7 0-1.56-.72-2.34-2.14-2.34-.55 0-1.16.1-1.84.31zm-.6-7.7h.6v2.53c.71-.2 1.33-.3 1.85-.3 1.81 0 2.72.99 2.72 2.97 0 2.14-.95 3.21-2.86 3.21-.86 0-1.63-.08-2.3-.25zm20.28 8.24c-.49.11-1.02.17-1.59.17-2.01 0-3.01-1.07-3.01-3.21 0-1.98 1-2.974 3.01-2.974.56 0 1.1.06 1.59.177v.53c-.53-.12-1.04-.18-1.54-.18-1.61 0-2.41.814-2.41 2.44 0 1.79.8 2.68 2.41 2.68.49 0 1-.06 1.53-.17zm7.11-.3c1.46 0 2.19-.88 2.19-2.65 0-1.73-.73-2.595-2.19-2.595s-2.19.863-2.19 2.595c0 1.77.73 2.65 2.19 2.65m-2.79-2.62c0-2.1.93-3.15 2.79-3.15s2.78 1.05 2.78 3.15c0 2.09-.93 3.14-2.79 3.14-1.85 0-2.78-1.05-2.79-3.15m10.32 3.094v-6.18h.43l.08.79c.76-.53 1.5-.79 2.24-.79 1.45 0 2.17.65 2.17 1.95v4.23h-.596v-4.2c0-.92-.54-1.38-1.61-1.38-.72 0-1.42.263-2.11.784v4.847zm9.92-7.19h.42l.11 1h1.79v.53h-1.74v3.9c0 .813.282 1.22.86 1.22h.875v.53h-.86c-.97 0-1.455-.555-1.455-1.667zm6.793 7.183v-6.18h.425l.07 1.02c.6-.68 1.267-1.02 2-1.02v.494c-.71 0-1.344.36-1.9 1.08v4.61zm9.32-.47c1.46 0 2.187-.886 2.187-2.65 0-1.73-.723-2.595-2.18-2.595-1.46 0-2.18.86-2.18 2.592 0 1.765.73 2.646 2.19 2.646m-2.784-2.62c0-2.1.93-3.15 2.782-3.15s2.783 1.05 2.783 3.15c0 2.1-.93 3.15-2.785 3.15-1.85 0-2.78-1.05-2.785-3.15m11.022 3.09h-.6v-8.4h.597zm11.793-.904c.604.216 1.16.32 1.666.32 1.54 0 2.31-.885 2.31-2.665 0-1.58-.77-2.37-2.3-2.37-.53 0-1.093.05-1.68.15zm-.6-5.02c.684-.165 1.444-.25 2.29-.25 1.914 0 2.87.98 2.87 2.94 0 2.16-.96 3.244-2.89 3.244-.475 0-1.033-.1-1.67-.3v2.53h-.6zM184 52.48c-1.18 0-1.767.433-1.767 1.296 0 .826.496 1.238 1.48 1.238.73 0 1.418-.2 2.075-.6V52.6c-.632-.078-1.227-.118-1.784-.118m-2.363 1.314c0-1.23.79-1.843 2.37-1.843.56 0 1.15.038 1.79.117v-.76c0-.946-.57-1.42-1.72-1.42-.65 0-1.3.098-1.94.295v-.53c.65-.198 1.29-.296 1.95-.296 1.55 0 2.32.64 2.32 1.92v4.26h-.36l-.13-.62c-.74.41-1.47.61-2.17.61-1.38 0-2.07-.59-2.07-1.75m9.78 1.75v-6.18h.43l.08.79c.76-.53 1.51-.79 2.24-.79 1.45 0 2.18.65 2.18 1.95v4.23h-.59v-4.25c0-.92-.54-1.38-1.61-1.38-.716 0-1.42.26-2.114.78v4.85zm10.26-3.51h3.97c-.03-1.44-.65-2.16-1.87-2.16-1.33 0-2.02.72-2.09 2.15m2.1-2.68c1.635 0 2.45.94 2.45 2.81 0 .13-.004.27-.01.42h-4.53c0 1.62.825 2.43 2.48 2.43.68 0 1.28-.1 1.805-.3v.53c-.526.19-1.127.29-1.807.29-2.05 0-3.077-1.06-3.077-3.16 0-2.02.898-3.03 2.69-3.03m7.908 6.18h-.6v-8.4h.6z" fill="#444142"/>
  <path d="M80.155 40.982v-6.68c0-.784-.308-1.326-.925-1.626-.617-.3-1.55-.45-2.8-.45h-2.897V42.91h2.775c1.46 0 2.466-.115 3.02-.34.55-.225.826-.755.826-1.59m3.797-6.604v6.606c0 1.835-.55 3.078-1.65 3.73-1.1.65-3.04.975-5.82.975h-6.74v-16.24h6.72c2.68 0 4.6.343 5.76 1.026 1.16.685 1.74 1.986 1.74 3.903m6.65 11.31h-3.56v-12.11h3.55zm0-13.536h-3.56V29.2h3.55zm11.01 4.205h-1.22c-.97 0-1.71.155-2.2.463-.49.31-.74.84-.74 1.59v7.28H93.9V33.58h3.384v2.128c.017-.6.353-1.147 1.01-1.64.66-.49 1.343-.737 2.058-.737h1.267zm9.52 2.177V36.78c0-.384-.15-.68-.45-.888-.3-.208-.84-.312-1.62-.312-.86 0-1.44.104-1.74.312-.3.21-.45.505-.45.888v1.75zm3.39 2.077h-7.64v1.1c0 .68.24 1.18.71 1.49.47.3 1.36.46 2.66.46 1.17 0 2.48-.18 3.94-.53v2.32c-1.49.31-3.03.47-4.62.47-4.17 0-6.25-1.31-6.25-3.93v-4.35c0-1.55.49-2.66 1.46-3.33.97-.67 2.42-1 4.36-1 1.82 0 3.17.31 4.065.95.894.63 1.34 1.76 1.34 3.38zm12.54 4.9c-1.43.28-2.76.42-3.99.42-.6 0-1.08-.01-1.43-.03-.36-.02-.81-.07-1.35-.14-.54-.08-.98-.21-1.31-.39-.33-.19-.66-.42-1-.71-.33-.29-.58-.69-.74-1.18-.16-.5-.24-1.08-.24-1.74v-4.03c0-.6.07-1.13.206-1.59.14-.46.31-.84.51-1.15.205-.31.49-.57.854-.79.37-.22.7-.38 1.01-.49.31-.11.71-.2 1.21-.26.5-.07.91-.11 1.24-.12.33-.01.77-.02 1.3-.02.89 0 2.09.15 3.58.45v2.4c-1.685-.4-2.97-.6-3.844-.6-1.64 0-2.46.57-2.46 1.7v4.46c0 1.28.9 1.93 2.7 1.93.85 0 2.108-.19 3.78-.55zm9.93.3c-.68.08-1.33.12-1.97.12-.55 0-1.03-.03-1.45-.07-.41-.04-.84-.14-1.29-.3-.44-.16-.81-.37-1.09-.63s-.52-.63-.7-1.1c-.18-.48-.28-1.04-.28-1.69v-6.33h-2.39v-2.25h2.39v-3.5h3.56v3.5H137v2.25h-3.24v5.7c0 .83.12 1.4.363 1.69.24.29.78.44 1.604.44.275 0 .697-.04 1.266-.13z" fill="#5c5b5f"/>
  <path d="M149.51 38.805l-1.996-6.104h-.096l-1.995 6.11zm6.087 6.88h-3.847l-1.412-4.278h-5.77l-1.388 4.28h-3.748l5.843-16.24h4.625zm9.81-3.627v-4.88c0-.6-.157-1.016-.475-1.25-.317-.233-.993-.35-2.032-.35-1.087 0-1.76.108-2.02.324-.26.218-.39.685-.39 1.402v4.63c0 .667.13 1.12.388 1.363s.868.363 1.825.363c1.152 0 1.89-.104 2.216-.312.32-.208.48-.638.48-1.29m3.55 3.63h-3.44V44.31c-.28.45-.53.78-.76.988-.23.208-.57.367-1.03.475-.46.11-1.11.164-1.95.164-2.01 0-3.33-.26-3.95-.776-.62-.51-.93-1.66-.93-3.45v-4.73c0-1.36.37-2.31 1.13-2.85.75-.53 1.94-.8 3.56-.8 1.17 0 1.99.11 2.46.34.47.23.91.65 1.32 1.27v-6.76h3.55zm21.39 0h-3.55v-8.382c0-.733-.09-1.204-.26-1.413-.17-.208-.64-.312-1.4-.312-.98 0-1.57.11-1.79.32-.22.21-.33.68-.33 1.42v8.38h-3.56v-8.38c0-.73-.09-1.2-.26-1.41-.17-.2-.64-.31-1.4-.31-.98 0-1.57.11-1.79.32-.22.21-.33.68-.33 1.42v8.38h-3.56V33.58h3.55v1.476c.22-1.15 1.39-1.726 3.48-1.726 1.12 0 1.96.15 2.52.45.56.3.94.75 1.13 1.35.19-.616.56-1.07 1.11-1.362.54-.292 1.4-.438 2.56-.438 1.54 0 2.57.28 3.08.838.51.56.77 1.44.77 2.64zm6.84 0h-3.56v-12.11h3.55zm0-13.536h-3.56V29.2h3.55zm14.65 13.536h-3.55V37.28c0-.667-.11-1.117-.33-1.35-.22-.234-.75-.35-1.57-.35-1.02 0-1.67.11-1.95.337-.28.224-.41.68-.41 1.363v8.407h-3.56v-12.11h3.5v1.476c.27-1.15 1.53-1.726 3.77-1.726 1.56 0 2.63.287 3.21.863.58.576.87 1.447.87 2.614z" fill="#737277"/>
</svg>